# AST/ASF file generated using VICON BodyLanguage
# -----------------------------------------------
:version 1.10
:name VICON
:units
  mass 1.0
  length 0.45
  angle deg
:documentation
   .ast/.asf automatically generated from VICON data using
   VICON BodyBuilder and BodyLanguage model FoxedUp or BRILLIANT.MOD
:root
   order TX TY TZ RX RY RZ
   axis XYZ
   position 0 0 0  
   orientation 0 0 0 
:bonedata
  begin
     id 1 
     name lhipjoint
     direction 0.645893 -0.654526 0.392961 
     length 2.38111 
     axis 0 0 0  XYZ
  end
  begin
     id 2 
     name lfemur
     direction 0.34202 -0.939693 0  
     length 6.6822  
     axis 0 0 20  XYZ
    dof rx ry rz
    limits (-160.0 20.0)
           (-70.0 70.0)
           (-60.0 70.0)
  end
  begin
     id 3 
     name ltibia
     direction 0.34202 -0.939693 0   
     length 6.93904   
     axis 0 0 20   XYZ
    dof rx
    limits (-10.0 170.0)
  end
  begin
     id 4 
     name lfoot
     direction 0.0694967 -0.190941 0.979138   
     length 2.13616   
     axis -90 7.62852e-016 20   XYZ
    dof rx rz
    limits (-45.0 90.0)
           (-70.0 20.0)
  end
  begin
     id 5 
     name ltoes
     direction 1.535e-011 -4.2202e-011 1   
     length 1.07536   
     axis -90 7.62852e-016 20   XYZ
    dof rx
    limits (-90.0 20.0)
  end
  begin
     id 6 
     name rhipjoint
     direction -0.700219 -0.612087 0.367481   
     length 2.54621  
     axis 0 0 0  XYZ 
  end
  begin
     id 7 
     name rfemur
     direction -0.34202 -0.939693 0   
     length 6.55353   
     axis 0 0 -20   XYZ
    dof rx ry rz
    limits (-160.0 20.0)
           (-70.0 70.0)
           (-70.0 60.0)
  end
  begin
     id 8 
     name rtibia
     direction -0.34202 -0.939693 0   
     length 6.8736   
     axis 0 0 -20   XYZ
    dof rx
    limits (-10.0 170.0)
 end
 begin
     id 9 
     name rfoot
     direction -0.0679995 -0.186827 0.980037   
     length 2.1218  
     axis -90 -7.62852e-016 -20   XYZ
    dof rx rz
    limits (-45.0 90.0)
           (-20.0 70.0)
  end
  begin
     id 10 
     name rtoes
     direction -1.53589e-011 -4.21772e-011 1   
     length 1.06864   
     axis -90 -7.62852e-016 -20   XYZ
    dof rx
    limits (-90.0 20.0)
  end
  begin
     id 11 
     name lowerback
     direction -0.0416607 0.996347 -0.0745409   
     length 2.12205   
     axis 0 0 0   XYZ
    dof rx ry rz
    limits (-20.0 45.0)
           (-30.0 30.0)
           (-30.0 30.0)
  end
  begin
     id 12 
     name upperback
     direction -0.000153993 0.999276 -0.0380568   
     length 2.12759   
     axis 0 0 0   XYZ
    dof rx ry rz
    limits (-20.0 45.0)
           (-30.0 30.0)
           (-30.0 30.0)
  end
  begin
     id 13 
     name thorax
     direction 0.0187671 0.999821 -0.00241421   
     length 2.13704   
     axis 0 0 0   XYZ
    dof rx ry rz
    limits (-20.0 45.0)
           (-30.0 30.0)
           (-30.0 30.0)
  end
  begin
     id 14 
     name lowerneck
     direction 0.0268157 0.964865 0.261374   
     length 1.65253   
     axis 0 0 0   XYZ
    dof rx ry rz
    limits (-20.0 45.0)
           (-30.0 30.0)
           (-30.0 30.0)
  end
  begin
     id 15 
     name upperneck
     direction 0.00263774 0.939908 -0.341418   
     length 1.72375   
     axis 0 0 0   XYZ
    dof rx ry rz
    limits (-20.0 45.0)
           (-30.0 30.0)
           (-30.0 30.0)
  end
  begin
     id 16
     name head
     direction -0.00526001 0.989001 -0.147818  
     length 1.74878  
     axis 0 0 0   XYZ
    dof rx ry rz
    limits (-20.0 45.0)
           (-30.0 30.0)
           (-30.0 30.0)
  end
  begin
     id 17 
     name lclavicle
     direction 0.881214 0.461162 -0.103884  
     length 3.25108  
     axis 0 0 0   XYZ
    dof ry rz
    limits (-20.0 10.0)
           (0.0 20.0)
  end
  begin
     id 18 
     name lhumerus
     direction 1 -4.4899e-011 3.38092e-027   
     length 4.87408   
     axis 180 -30 -90   XYZ
    dof rx ry rz
    limits (-60.0 90.0)
           (-90.0 90.0)
           (-90.0 90.0)
  end
  begin
     id 19
     name lradius
     direction 1 -4.48931e-011 9.96288e-027   
     length 2.76729   
     axis 180 -30 -90   XYZ
    dof rx
    limits (-10.0 170.0)
  end
  begin
     id 20
     name lwrist
     direction 1 -4.4896e-011 1.50617e-026   
     length 1.38364   
     axis -9.31234e-015 90 90   XYZ
    dof ry
    limits (-180.0 0.0)
 end
  begin
     id 21 
     name lhand
     direction 1 -4.49038e-011 3.01286e-026   
     length 0.98922   
     axis -1.92217e-014 90 90   XYZ
    dof rx rz
    limits (-90.0 90.0)
           (-45.0 45.0)
  end
  begin
     id 22 
     name lfingers
     direction 1 -4.49051e-011 6.02588e-026   
     length 0.797535   
     axis -3.84436e-014 90 90   XYZ
    dof rx
    limits (0.0 90.0)
  end
  begin
     id 23
     name lthumb
     direction 0.707107 -6.34901e-011 0.707107   
     length 1.14511   
     axis -90 45 2.19363e-014   XYZ
    dof rx rz
    limits (-45.0 45.0)
           (-45.0 45.0)
  end
  begin
     id 24 
     name rclavicle
     direction -0.893894 0.441652 -0.0767889   
     length 3.29361  
     axis 0 0 0   XYZ 
    dof ry rz
    limits (-10.0 20.0)
           (-20.0 0.0)
  end
  begin
     id 25 
     name rhumerus
     direction -1 -4.48945e-011 8.0491e-028  
     length 4.71404   
     axis 180 30 90   XYZ
    dof rx ry rz
    limits (-90.0 60.0)
           (-90.0 90.0)
           (-90.0 90.0)
  end
  begin
     id 26 
     name rradius
     direction -1 -4.48986e-011 9.27795e-027   
     length 2.83468   
     axis 180 30 90   XYZ
    dof rx
    limits (-10.0 170.0)
  end
  begin
     id 27 
     name rwrist
     direction -1 -4.49029e-011 1.5064e-026   
     length 1.41734   
     axis -9.31234e-015 -90 -90   XYZ
    dof ry
    limits (-180.0 0.0)
  end
  begin
     id 28
     name rhand
     direction -1 -4.48857e-011 3.01165e-026   
     length 0.868195   
     axis -1.92217e-014 -90 -90   XYZ
    dof rx rz
    limits (-90.0 90.0)
           (-45.0 45.0)
  end
  begin
     id 29
     name rfingers
     direction -1 -4.49048e-011 6.02585e-026   
     length 0.699961   
     axis -3.84436e-014 -90 -90   XYZ
    dof rx
    limits (0.0 90.0)
  end
  begin
     id 30
     name rthumb
     direction -0.707107 -6.34854e-011 0.707107   
     length 1.00501   
     axis -90 -45 -2.19363e-014   XYZ
    dof rx rz
    limits (-45.0 45.0)
           (-45.0 45.0)
  end
:hierarchy
  begin
    root lhipjoint rhipjoint lowerback
    lhipjoint lfemur
    lfemur ltibia
    ltibia lfoot
    lfoot ltoes
    rhipjoint rfemur
    rfemur rtibia
    rtibia rfoot
    rfoot rtoes
    lowerback upperback
    upperback thorax
    thorax lowerneck lclavicle rclavicle
    lowerneck upperneck
    upperneck head
    lclavicle lhumerus
    lhumerus lradius
    lradius lwrist
    lwrist lhand lthumb
    lhand lfingers
    rclavicle rhumerus
    rhumerus rradius
    rradius rwrist
    rwrist rhand rthumb
    rhand rfingers
  end

#!OML:ASF H:\ManfredObstacles\Project 1\Capture day 2\Session 1\male.ASF
:FULLY-SPECIFIED
:DEGREES
49
root 1.61822 16.234 8.58063 -171.876 -0.795368 173.569
lowerback -4.58082 -5.36502 -7.60563
upperback 0.247428 -6.79612 -1.06251
thorax 3.56705 -3.54236 2.56082
lowerneck -34.2539 2.49238 4.48478
upperneck 38.3049 4.36747 -3.13174
head 21.5364 2.33288 -1.00413
rclavicle 2.26863e-014 1.8487e-014
rhumerus -77.2443 3.59906 -76.8389
rradius 72.1635
rwrist 4.08302
rhand -10.3122 -1.98603
rfingers 7.12502
rthumb 15.683 -31.3705
lclavicle 2.26863e-014 1.8487e-014
lhumerus -43.6754 -25.8132 91.8278
lradius 100.089
lwrist -21.4028
lhand -8.7538 1.98022
lfingers 7.12502
lthumb 17.1834 31.2404
rfemur -37.1381 -1.95999 18.0921
rtibia 33.6076
rfoot 11.5607 -7.62137
rtoes -17.1462
lfemur 6.85896 0.619574 -27.5893
ltibia 48.7467
lfoot 28.0856 5.03267
ltoes -0.506592
50
root 1.63566 16.1242 8.27 -172.516 -0.441979 173.99
lowerback -4.0919 -4.97081 -7.31278
upperback 0.474661 -6.30975 -1.00205
thorax 3.45403 -3.2945 2.5477
lowerneck -34.1548 2.37017 4.29204
upperneck 38.1605 4.26933 -3.10983
head 21.3963 2.26804 -0.987409
rclavicle 1.69215e-014 2.03754e-014
rhumerus -76.0567 3.35756 -77.2143
rradius 71.3522
rwrist 4.11572
rhand -10.4628 -2.35034
rfingers 7.12502
rthumb 15.5379 -31.7461
lclavicle 1.69215e-014 2.03754e-014
lhumerus -43.5244 -24.6916 91.8844
lradius 98.3655
lwrist -22.2067
lhand -8.70999 2.11162
lfingers 7.12502
lthumb 17.2256 31.3682
rfemur -36.1218 -1.74777 18.9179
rtibia 35.589
rfoot 8.41279 -8.51558
rtoes -17.5852
lfemur 5.87434 1.44172 -26.827
ltibia 52.3947
lfoot 27.1008 5.87314
ltoes -1.7701
51
root 1.65205 16.0233 7.96818 -173.205 -0.0731769 174.593
lowerback -3.46506 -4.54946 -6.85719
upperback 0.740252 -5.80136 -0.880401
thorax 3.29355 -3.03194 2.51304
lowerneck -34.1006 2.26237 4.15
upperneck 37.9515 4.17449 -3.16187
head 21.2319 2.19489 -1.01798
rclavicle 3.926e-014 1.16289e-014
rhumerus -74.5847 3.10895 -77.6787
rradius 70.4217
rwrist 4.20714
rhand -10.6619 -2.76318
rfingers 7.12502
rthumb 15.3462 -32.1737
lclavicle 3.926e-014 1.16289e-014
lhumerus -43.2819 -23.4559 91.9568
lradius 96.4762
lwrist -22.9885
lhand -8.78204 2.20644
lfingers 7.12502
lthumb 17.1562 31.469
rfemur -35.0099 -1.28544 19.8158
rtibia 37.4076
rfoot 5.61378 -9.5872
rtoes -18.0251
lfemur 4.83299 2.22485 -25.873
ltibia 55.9974
lfoot 26.0527 6.69519
ltoes -2.80341
52
root 1.66664 15.9318 7.67664 -173.925 0.283404 175.45
lowerback -2.71507 -4.18164 -6.15842
upperback 1.04294 -5.27784 -0.673968
thorax 3.09457 -2.71642 2.43219
lowerneck -34.1125 2.20708 4.11342
upperneck 37.6388 4.11361 -3.3233
head 21.0289 2.1242 -1.11496
rclavicle 3.01904e-015 8.05078e-015
rhumerus -72.7912 2.9052 -78.2364
rradius 69.3356
rwrist 4.354
rhand -10.9129 -3.21848
rfingers 7.12502
rthumb 15.1044 -32.6474
lclavicle 3.01904e-015 8.05078e-015
lhumerus -42.9729 -22.085 92.0235
lradius 94.4411
lwrist -23.7341
lhand -8.94371 2.26856
lfingers 7.12502
lthumb 17.0006 31.5446
rfemur -33.7283 -0.714801 20.9097
rtibia 38.8975
rfoot 3.15144 -10.6026
rtoes -18.4019
lfemur 3.69125 2.9435 -24.6452
ltibia 59.5628
lfoot 24.8761 7.49918
ltoes -3.4957
53
root 1.67805 15.85 7.39467 -174.619 0.5934 176.516
lowerback -1.92748 -3.75008 -5.24846
upperback 1.37122 -4.79742 -0.39697
thorax 2.89326 -2.47248 2.29158
lowerneck -34.1802 2.18278 4.15258
upperneck 37.2817 4.06078 -3.53697
head 20.8195 2.05479 -1.24896
rclavicle -6.43068e-014 4.67144e-015
rhumerus -70.6848 2.77156 -78.8765
rradius 68.1087
rwrist 4.5425
rhand -11.1808 -3.69053
rfingers 7.12502
rthumb 14.8463 -33.1386
lclavicle -6.43068e-014 4.67144e-015
lhumerus -42.6316 -20.6166 92.0626
lradius 92.2772
lwrist -24.3867
lhand -9.18738 2.37551
lfingers 7.12502
lthumb 16.7661 31.6716
rfemur -32.2817 -0.214158 22.181
rtibia 39.9803
rfoot 0.916692 -11.4358
rtoes -18.6781
lfemur 2.3952 3.54539 -23.2011
ltibia 63.0669
lfoot 23.5378 8.32441
ltoes -3.83777
